<svg width="191" height="24" viewBox="0 0 191 24" fill="none" xmlns="http://www.w3.org/2000/svg">
<path d="M8.74432 9.18182C8.66761 8.53409 8.35653 8.03125 7.81108 7.6733C7.26563 7.31534 6.59659 7.13636 5.80398 7.13636C5.22443 7.13636 4.71733 7.23011 4.28267 7.41761C3.85227 7.60511 3.51563 7.86293 3.27273 8.19105C3.03409 8.51918 2.91477 8.89204 2.91477 9.30966C2.91477 9.65909 2.99787 9.95952 3.16406 10.2109C3.33452 10.4581 3.55185 10.6648 3.81605 10.831C4.08026 10.9929 4.35724 11.1271 4.64702 11.2337C4.93679 11.3359 5.20312 11.419 5.44602 11.483L6.77557 11.8409C7.11648 11.9304 7.49574 12.054 7.91335 12.2116C8.33523 12.3693 8.73793 12.5845 9.12145 12.8572C9.50923 13.1257 9.82884 13.4709 10.0803 13.8928C10.3317 14.3146 10.4574 14.8324 10.4574 15.446C10.4574 16.1534 10.272 16.7926 9.90128 17.3636C9.5348 17.9347 8.99787 18.3885 8.29048 18.7251C7.58736 19.0618 6.73295 19.2301 5.72727 19.2301C4.78977 19.2301 3.97798 19.0788 3.2919 18.7763C2.61009 18.4737 2.07315 18.0518 1.68111 17.5107C1.29332 16.9695 1.07386 16.3409 1.02273 15.625H2.65909C2.7017 16.1193 2.8679 16.5284 3.15767 16.8523C3.4517 17.1719 3.82244 17.4105 4.26989 17.5682C4.72159 17.7216 5.20739 17.7983 5.72727 17.7983C6.33239 17.7983 6.87571 17.7003 7.35724 17.5043C7.83878 17.304 8.22017 17.027 8.50142 16.6733C8.78267 16.3153 8.9233 15.8977 8.9233 15.4205C8.9233 14.9858 8.80185 14.6321 8.55895 14.3594C8.31605 14.0866 7.99645 13.8651 7.60014 13.6946C7.20384 13.5241 6.77557 13.375 6.31534 13.2472L4.70455 12.7869C3.68182 12.4929 2.87216 12.0732 2.27557 11.5277C1.67898 10.9822 1.38068 10.2685 1.38068 9.38636C1.38068 8.65341 1.57884 8.0142 1.97514 7.46875C2.37571 6.91903 2.91264 6.4929 3.58594 6.19034C4.26349 5.88352 5.01989 5.73011 5.85511 5.73011C6.69886 5.73011 7.44886 5.88139 8.10511 6.18395C8.76136 6.48224 9.28125 6.89133 9.66477 7.41122C10.0526 7.93111 10.2571 8.52131 10.2784 9.18182H8.74432ZM14.3677 13.0938V19H12.8592V5.90909H14.3677V10.7159H14.4956C14.7257 10.2088 15.0708 9.80611 15.5311 9.50781C15.9956 9.20526 16.6135 9.05398 17.3848 9.05398C18.0538 9.05398 18.6397 9.18821 19.1426 9.45668C19.6454 9.72088 20.0353 10.1278 20.3123 10.6776C20.5936 11.223 20.7342 11.9176 20.7342 12.7614V19H19.2257V12.8636C19.2257 12.0838 19.0233 11.4808 18.6184 11.0547C18.2179 10.6243 17.6618 10.4091 16.9501 10.4091C16.4558 10.4091 16.0126 10.5135 15.6206 10.7223C15.2328 10.9311 14.926 11.2358 14.7001 11.6364C14.4785 12.0369 14.3677 12.5227 14.3677 13.0938ZM27.4826 19.2045C26.5962 19.2045 25.8185 18.9936 25.1495 18.5717C24.4847 18.1499 23.9648 17.5597 23.5898 16.8011C23.2191 16.0426 23.0337 15.1562 23.0337 14.142C23.0337 13.1193 23.2191 12.2266 23.5898 11.4638C23.9648 10.701 24.4847 10.1087 25.1495 9.68679C25.8185 9.26491 26.5962 9.05398 27.4826 9.05398C28.369 9.05398 29.1445 9.26491 29.8093 9.68679C30.4783 10.1087 30.9982 10.701 31.369 11.4638C31.744 12.2266 31.9315 13.1193 31.9315 14.142C31.9315 15.1562 31.744 16.0426 31.369 16.8011C30.9982 17.5597 30.4783 18.1499 29.8093 18.5717C29.1445 18.9936 28.369 19.2045 27.4826 19.2045ZM27.4826 17.8494C28.1559 17.8494 28.7099 17.6768 29.1445 17.3317C29.5792 16.9865 29.9009 16.5327 30.1097 15.9702C30.3185 15.4077 30.4229 14.7983 30.4229 14.142C30.4229 13.4858 30.3185 12.8743 30.1097 12.3075C29.9009 11.7408 29.5792 11.2827 29.1445 10.9332C28.7099 10.5838 28.1559 10.4091 27.4826 10.4091C26.8093 10.4091 26.2553 10.5838 25.8207 10.9332C25.386 11.2827 25.0643 11.7408 24.8555 12.3075C24.6467 12.8743 24.5423 13.4858 24.5423 14.142C24.5423 14.7983 24.6467 15.4077 24.8555 15.9702C25.0643 16.5327 25.386 16.9865 25.8207 17.3317C26.2553 17.6768 26.8093 17.8494 27.4826 17.8494ZM34.2342 22.6818V9.18182H35.6916V10.7415H35.8706C35.9814 10.571 36.1348 10.3537 36.3308 10.0895C36.5311 9.82102 36.8166 9.58239 37.1873 9.37358C37.5623 9.16051 38.0694 9.05398 38.7086 9.05398C39.5353 9.05398 40.264 9.26065 40.8947 9.67401C41.5254 10.0874 42.0176 10.6733 42.3713 11.4318C42.725 12.1903 42.9018 13.0852 42.9018 14.1165C42.9018 15.1562 42.725 16.0575 42.3713 16.8203C42.0176 17.5788 41.5275 18.1669 40.9011 18.5845C40.2747 18.9979 39.5524 19.2045 38.7342 19.2045C38.1035 19.2045 37.5985 19.1001 37.2193 18.8913C36.84 18.6783 36.5481 18.4375 36.3436 18.169C36.139 17.8963 35.9814 17.6705 35.8706 17.4915H35.7427V22.6818H34.2342ZM35.7172 14.0909C35.7172 14.8324 35.8258 15.4865 36.0431 16.0533C36.2605 16.6158 36.5779 17.0568 36.9956 17.3764C37.4132 17.6918 37.9245 17.8494 38.5297 17.8494C39.1603 17.8494 39.6866 17.6832 40.1085 17.3509C40.5346 17.0142 40.8542 16.5625 41.0673 15.9957C41.2846 15.4247 41.3933 14.7898 41.3933 14.0909C41.3933 13.4006 41.2868 12.7784 41.0737 12.2244C40.8649 11.6662 40.5474 11.2251 40.1213 10.9013C39.6994 10.5732 39.1689 10.4091 38.5297 10.4091C37.916 10.4091 37.4004 10.5646 36.9828 10.8757C36.5652 11.1825 36.2498 11.6129 36.0368 12.1669C35.8237 12.7166 35.7172 13.358 35.7172 14.0909ZM50.47 19V5.90909H55.0467C55.9586 5.90909 56.7108 6.06676 57.3031 6.3821C57.8954 6.69318 58.3365 7.11293 58.6262 7.64134C58.916 8.16548 59.0609 8.74716 59.0609 9.38636C59.0609 9.94886 58.9608 10.4134 58.7605 10.7798C58.5645 11.1463 58.3045 11.4361 57.9806 11.6491C57.661 11.8622 57.3137 12.0199 56.9387 12.1222V12.25C57.3393 12.2756 57.742 12.4162 58.1468 12.6719C58.5517 12.9276 58.8904 13.294 59.1632 13.7713C59.4359 14.2486 59.5723 14.8324 59.5723 15.5227C59.5723 16.179 59.4231 16.7692 59.1248 17.2933C58.8265 17.8175 58.3556 18.233 57.7122 18.5398C57.0687 18.8466 56.2314 19 55.2001 19H50.47ZM52.0552 17.5938H55.2001C56.2356 17.5938 56.9707 17.3935 57.4054 16.9929C57.8443 16.5881 58.0637 16.098 58.0637 15.5227C58.0637 15.0795 57.9508 14.6705 57.725 14.2955C57.4991 13.9162 57.1774 13.6136 56.7598 13.3878C56.3422 13.1577 55.8478 13.0426 55.2768 13.0426H52.0552V17.5938ZM52.0552 11.6619H54.9956C55.4728 11.6619 55.9032 11.5682 56.2868 11.3807C56.6745 11.1932 56.9814 10.929 57.2072 10.5881C57.4373 10.2472 57.5524 9.84659 57.5524 9.38636C57.5524 8.81108 57.3521 8.32315 56.9515 7.92259C56.551 7.51776 55.916 7.31534 55.0467 7.31534H52.0552V11.6619ZM62.9441 22.6818C62.6884 22.6818 62.4604 22.6605 62.2601 22.6179C62.0598 22.5795 61.9213 22.5412 61.8446 22.5028L62.2282 21.1733C62.5946 21.267 62.9185 21.3011 63.1998 21.2756C63.481 21.25 63.7303 21.1243 63.9476 20.8984C64.1692 20.6768 64.3716 20.3168 64.5549 19.8182L64.8361 19.0511L61.2054 9.18182H62.8418L65.552 17.0057H65.6543L68.3645 9.18182H70.0009L65.8333 20.4318C65.6458 20.9389 65.4135 21.3587 65.1365 21.6911C64.8596 22.0277 64.5378 22.277 64.1713 22.4389C63.8091 22.6009 63.4 22.6818 62.9441 22.6818ZM87.7931 10H86.2079C86.1142 9.54403 85.9501 9.14347 85.7157 8.7983C85.4856 8.45312 85.2044 8.16335 84.872 7.92898C84.5439 7.69034 84.1795 7.51136 83.7789 7.39205C83.3784 7.27273 82.9608 7.21307 82.5261 7.21307C81.7335 7.21307 81.0154 7.41335 80.372 7.81392C79.7328 8.21449 79.2235 8.80469 78.8443 9.58452C78.4693 10.3643 78.2818 11.321 78.2818 12.4545C78.2818 13.5881 78.4693 14.5447 78.8443 15.3246C79.2235 16.1044 79.7328 16.6946 80.372 17.0952C81.0154 17.4957 81.7335 17.696 82.5261 17.696C82.9608 17.696 83.3784 17.6364 83.7789 17.517C84.1795 17.3977 84.5439 17.2209 84.872 16.9865C85.2044 16.7479 85.4856 16.456 85.7157 16.1108C85.9501 15.7614 86.1142 15.3608 86.2079 14.9091H87.7931C87.6738 15.5781 87.4565 16.1768 87.1412 16.7053C86.8258 17.2337 86.4338 17.6832 85.965 18.054C85.4963 18.4205 84.97 18.6996 84.3862 18.8913C83.8066 19.0831 83.1866 19.179 82.5261 19.179C81.4096 19.179 80.4167 18.9062 79.5474 18.3608C78.6781 17.8153 77.9941 17.0398 77.4956 16.0341C76.997 15.0284 76.7477 13.8352 76.7477 12.4545C76.7477 11.0739 76.997 9.88068 77.4956 8.875C77.9941 7.86932 78.6781 7.09375 79.5474 6.5483C80.4167 6.00284 81.4096 5.73011 82.5261 5.73011C83.1866 5.73011 83.8066 5.82599 84.3862 6.01776C84.97 6.20952 85.4963 6.49077 85.965 6.86151C86.4338 7.22798 86.8258 7.67543 87.1412 8.20384C87.4565 8.72798 87.6738 9.3267 87.7931 10ZM93.0394 19.2301C92.4173 19.2301 91.8526 19.1129 91.3455 18.8786C90.8384 18.6399 90.4357 18.2969 90.1374 17.8494C89.8391 17.3977 89.69 16.8523 89.69 16.2131C89.69 15.6506 89.8008 15.1946 90.0224 14.8452C90.244 14.4915 90.5401 14.2145 90.9109 14.0142C91.2816 13.8139 91.6907 13.6648 92.1381 13.5668C92.5898 13.4645 93.0437 13.3835 93.4996 13.3239C94.0962 13.2472 94.5799 13.1896 94.9506 13.1513C95.3256 13.1087 95.5984 13.0384 95.7688 12.9403C95.9435 12.8423 96.0309 12.6719 96.0309 12.429V12.3778C96.0309 11.7472 95.8583 11.2571 95.5131 10.9077C95.1722 10.5582 94.6545 10.3835 93.9599 10.3835C93.2397 10.3835 92.6751 10.5412 92.266 10.8565C91.8569 11.1719 91.5692 11.5085 91.4031 11.8665L89.9712 11.3551C90.2269 10.7585 90.5678 10.294 90.994 9.96165C91.4244 9.625 91.8931 9.39062 92.4002 9.25852C92.9116 9.12216 93.4144 9.05398 93.9087 9.05398C94.2241 9.05398 94.5863 9.09233 94.9954 9.16903C95.4087 9.24148 95.8072 9.39276 96.1907 9.62287C96.5785 9.85298 96.9002 10.2003 97.1559 10.6648C97.4116 11.1293 97.5394 11.7514 97.5394 12.5312V19H96.0309V17.6705H95.9542C95.8519 17.8835 95.6815 18.1115 95.4428 18.3544C95.2042 18.5973 94.8867 18.804 94.4904 18.9744C94.0941 19.1449 93.6104 19.2301 93.0394 19.2301ZM93.2695 17.875C93.8661 17.875 94.369 17.7578 94.7781 17.5234C95.1914 17.2891 95.5025 16.9865 95.7113 16.6158C95.9244 16.245 96.0309 15.8551 96.0309 15.446V14.0653C95.967 14.142 95.8263 14.2124 95.609 14.2763C95.396 14.3359 95.1488 14.3892 94.8675 14.4361C94.5906 14.4787 94.32 14.517 94.0558 14.5511C93.7958 14.581 93.5849 14.6065 93.4229 14.6278C93.0309 14.679 92.6644 14.7621 92.3235 14.8771C91.9869 14.9879 91.7141 15.1562 91.5053 15.3821C91.3008 15.6037 91.1985 15.9062 91.1985 16.2898C91.1985 16.8139 91.3924 17.2102 91.7802 17.4787C92.1722 17.7429 92.6687 17.875 93.2695 17.875ZM104.563 9.18182V10.4602H99.4746V9.18182H104.563ZM100.958 6.82955H102.466V16.1875C102.466 16.6136 102.528 16.9332 102.651 17.1463C102.779 17.3551 102.941 17.4957 103.137 17.5682C103.338 17.6364 103.548 17.6705 103.77 17.6705C103.936 17.6705 104.073 17.6619 104.179 17.6449C104.286 17.6236 104.371 17.6065 104.435 17.5938L104.742 18.9489C104.639 18.9872 104.497 19.0256 104.313 19.0639C104.13 19.1065 103.898 19.1278 103.617 19.1278C103.191 19.1278 102.773 19.0362 102.364 18.853C101.959 18.6697 101.622 18.3906 101.354 18.0156C101.09 17.6406 100.958 17.1676 100.958 16.5966V6.82955ZM110.843 19.2045C109.897 19.2045 109.081 18.9957 108.395 18.5781C107.713 18.1562 107.187 17.5682 106.816 16.8139C106.449 16.0554 106.266 15.1733 106.266 14.1676C106.266 13.1619 106.449 12.2756 106.816 11.5085C107.187 10.7372 107.702 10.1364 108.363 9.70597C109.028 9.27131 109.803 9.05398 110.689 9.05398C111.201 9.05398 111.706 9.1392 112.204 9.30966C112.703 9.48011 113.157 9.7571 113.566 10.1406C113.975 10.5199 114.301 11.0227 114.544 11.6491C114.787 12.2756 114.908 13.0469 114.908 13.9631V14.6023H107.34V13.2983H113.374C113.374 12.7443 113.263 12.25 113.042 11.8153C112.824 11.3807 112.513 11.0376 112.108 10.7862C111.708 10.5348 111.235 10.4091 110.689 10.4091C110.089 10.4091 109.569 10.5582 109.13 10.8565C108.695 11.1506 108.361 11.5341 108.126 12.0071C107.892 12.4801 107.775 12.9872 107.775 13.5284V14.3977C107.775 15.1392 107.903 15.7678 108.158 16.2834C108.418 16.7947 108.778 17.1847 109.238 17.4531C109.699 17.7173 110.233 17.8494 110.843 17.8494C111.239 17.8494 111.597 17.794 111.917 17.6832C112.241 17.5682 112.52 17.3977 112.754 17.1719C112.988 16.9418 113.17 16.6562 113.297 16.3153L114.755 16.7244C114.601 17.2188 114.344 17.6534 113.981 18.0284C113.619 18.3991 113.172 18.6889 112.639 18.8977C112.106 19.1023 111.508 19.2045 110.843 19.2045ZM121.166 22.8864C120.437 22.8864 119.811 22.7926 119.287 22.6051C118.763 22.4219 118.326 22.179 117.976 21.8764C117.631 21.5781 117.356 21.2585 117.152 20.9176L118.354 20.0739C118.49 20.2528 118.662 20.4574 118.871 20.6875C119.08 20.9219 119.366 21.1243 119.728 21.2947C120.094 21.4695 120.574 21.5568 121.166 21.5568C121.959 21.5568 122.613 21.3651 123.128 20.9815C123.644 20.598 123.902 19.9972 123.902 19.179V17.1847H123.774C123.663 17.3636 123.506 17.5852 123.301 17.8494C123.101 18.1094 122.811 18.3416 122.432 18.5462C122.057 18.7464 121.55 18.8466 120.91 18.8466C120.118 18.8466 119.406 18.6591 118.775 18.2841C118.149 17.9091 117.653 17.3636 117.286 16.6477C116.924 15.9318 116.743 15.0625 116.743 14.0398C116.743 13.0341 116.92 12.1584 117.273 11.4126C117.627 10.6626 118.119 10.0831 118.75 9.67401C119.381 9.26065 120.109 9.05398 120.936 9.05398C121.575 9.05398 122.082 9.16051 122.457 9.37358C122.836 9.58239 123.126 9.82102 123.327 10.0895C123.531 10.3537 123.689 10.571 123.8 10.7415H123.953V9.18182H125.41V19.2812C125.41 20.125 125.219 20.8111 124.835 21.3395C124.456 21.8722 123.944 22.2621 123.301 22.5092C122.662 22.7607 121.95 22.8864 121.166 22.8864ZM121.115 17.4915C121.72 17.4915 122.231 17.353 122.649 17.076C123.067 16.799 123.384 16.4006 123.601 15.8807C123.819 15.3608 123.927 14.7386 123.927 14.0142C123.927 13.3068 123.821 12.6825 123.608 12.1413C123.395 11.6001 123.079 11.1761 122.662 10.8693C122.244 10.5625 121.729 10.4091 121.115 10.4091C120.476 10.4091 119.943 10.571 119.517 10.8949C119.095 11.2187 118.778 11.6534 118.564 12.1989C118.356 12.7443 118.251 13.3494 118.251 14.0142C118.251 14.696 118.358 15.299 118.571 15.8232C118.788 16.343 119.108 16.7521 119.53 17.0504C119.956 17.3445 120.484 17.4915 121.115 17.4915ZM132.16 19.2045C131.274 19.2045 130.496 18.9936 129.827 18.5717C129.162 18.1499 128.643 17.5597 128.268 16.8011C127.897 16.0426 127.711 15.1562 127.711 14.142C127.711 13.1193 127.897 12.2266 128.268 11.4638C128.643 10.701 129.162 10.1087 129.827 9.68679C130.496 9.26491 131.274 9.05398 132.16 9.05398C133.047 9.05398 133.822 9.26491 134.487 9.68679C135.156 10.1087 135.676 10.701 136.047 11.4638C136.422 12.2266 136.609 13.1193 136.609 14.142C136.609 15.1562 136.422 16.0426 136.047 16.8011C135.676 17.5597 135.156 18.1499 134.487 18.5717C133.822 18.9936 133.047 19.2045 132.16 19.2045ZM132.16 17.8494C132.834 17.8494 133.388 17.6768 133.822 17.3317C134.257 16.9865 134.579 16.5327 134.787 15.9702C134.996 15.4077 135.101 14.7983 135.101 14.142C135.101 13.4858 134.996 12.8743 134.787 12.3075C134.579 11.7408 134.257 11.2827 133.822 10.9332C133.388 10.5838 132.834 10.4091 132.16 10.4091C131.487 10.4091 130.933 10.5838 130.498 10.9332C130.064 11.2827 129.742 11.7408 129.533 12.3075C129.324 12.8743 129.22 13.4858 129.22 14.142C129.22 14.7983 129.324 15.4077 129.533 15.9702C129.742 16.5327 130.064 16.9865 130.498 17.3317C130.933 17.6768 131.487 17.8494 132.16 17.8494ZM138.912 19V9.18182H140.369V10.6648H140.472C140.651 10.179 140.974 9.7848 141.443 9.48224C141.912 9.17969 142.44 9.02841 143.028 9.02841C143.139 9.02841 143.278 9.03054 143.444 9.0348C143.61 9.03906 143.736 9.04545 143.821 9.05398V10.5881C143.77 10.5753 143.653 10.5561 143.469 10.5305C143.29 10.5007 143.101 10.4858 142.901 10.4858C142.423 10.4858 141.997 10.5859 141.622 10.7862C141.251 10.9822 140.957 11.255 140.74 11.6044C140.527 11.9496 140.42 12.3437 140.42 12.7869V19H138.912ZM146.88 22.6818C146.624 22.6818 146.396 22.6605 146.196 22.6179C145.995 22.5795 145.857 22.5412 145.78 22.5028L146.164 21.1733C146.53 21.267 146.854 21.3011 147.135 21.2756C147.417 21.25 147.666 21.1243 147.883 20.8984C148.105 20.6768 148.307 20.3168 148.49 19.8182L148.772 19.0511L145.141 9.18182H146.777L149.488 17.0057H149.59L152.3 9.18182H153.936L149.769 20.4318C149.581 20.9389 149.349 21.3587 149.072 21.6911C148.795 22.0277 148.473 22.277 148.107 22.4389C147.745 22.6009 147.336 22.6818 146.88 22.6818Z" fill="#402101"/>
<path d="M174.41 8.59003L179 13.17L183.59 8.59003L185 10L179 16L173 10L174.41 8.59003Z" fill="#402101"/>
</svg>
